PathFileType	4	(X/Y/Z)	..\data\2014022\dynamic\2014022_C5_02.trc
DataRate	CameraRate	NumFrames	NumMarkers	Units	OrigDataRate	OrigDataStartFrame	OrigNumFrames
100.000000	100.000000	4	52	mm	100.000000	18	145
Frame#	Time	L_IAS			L_IPS			R_IPS			R_IAS			L_FTC			L_FLE			L_FME			L_FAX			L_TTC			L_FAL			L_TAM			L_FCC			L_FM1			L_FM2			L_FM5			R_FTC			R_FLE			R_FME			R_FAX			R_TTC			R_FAL			R_TAM			R_FCC			R_FM1			R_FM2			R_FM5			CV7			TV10			SXS			SJN			L_SIA			L_SRS			L_SAA			L_SAE			L_HLE			L_HME			L_UOA			L_RSP			L_UHE			L_HM2			L_HM5			R_SIA			R_SRS			R_SAA			R_SAE			R_HLE			R_HME			R_UOA			R_RSP			R_UHE			R_HM2			R_HM5			
		X1	Y1	Z1	X2	Y2	Z2	X3	Y3	Z3	X4	Y4	Z4	X5	Y5	Z5	X6	Y6	Z6	X7	Y7	Z7	X8	Y8	Z8	X9	Y9	Z9	X10	Y10	Z10	X11	Y11	Z11	X12	Y12	Z12	X13	Y13	Z13	X14	Y14	Z14	X15	Y15	Z15	X16	Y16	Z16	X17	Y17	Z17	X18	Y18	Z18	X19	Y19	Z19	X20	Y20	Z20	X21	Y21	Z21	X22	Y22	Z22	X23	Y23	Z23	X24	Y24	Z24	X25	Y25	Z25	X26	Y26	Z26	X27	Y27	Z27	X28	Y28	Z28	X29	Y29	Z29	X30	Y30	Z30	X31	Y31	Z31	X32	Y32	Z32	X33	Y33	Z33	X34	Y34	Z34	X35	Y35	Z35	X36	Y36	Z36	X37	Y37	Z37	X38	Y38	Z38	X39	Y39	Z39	X40	Y40	Z40	X41	Y41	Z41	X42	Y42	Z42	X43	Y43	Z43	X44	Y44	Z44	X45	Y45	Z45	X46	Y46	Z46	X47	Y47	Z47	X48	Y48	Z48	X49	Y49	Z49	X50	Y50	Z50	X51	Y51	Z51	X52	Y52	Z52	

19	0.18	-5.0735502243042	939.8120117187502	-385.2170715332032	-204.2116088867188	948.2443847656252	-317.0031127929688	-200.8203735351563	940.0601806640627	-204.0077056884766	-15.72853469848633	912.6250610351565	-142.5535278320313	-74.38424682617189	886.9681396484377	-458.6713256835939	56.79872131347658	467.2779541015626	-400.086151123047	29.00885963439942	458.425994873047	-268.8712158203126	37.02336502075196	412.6952209472657	-404.9887695312501	98.47438812255862	408.6729125976564	-342.2024841308594	40.20265579223634	67.00648498535158	-347.0856933593751	57.15803146362306	80.6743850708008	-262.7731323242188	3.86611819267273	18.78209877014161	-300.2866516113282	187.8003234863282	14.61954402923584	-259.4866638183594	195.4949951171876	34.42893981933594	-320.0700378417969	150.9848175048828	19.82025146484375	-371.4049072265626	-92.27107238769533	836.288513183594	-83.31024169921876	-79.6571731567383	425.5997619628907	-121.1875381469727	-50.83089828491212	414.8521728515626	-257.2034912109376	-121.5787811279297	401.2779235839845	-117.1101989746094	-79.10100555419923	345.5297241210938	-165.4801330566407	-410.5331115722657	229.4241943359376	-154.3853454589844	-395.3474121093751	213.194808959961	-237.7303466796876	-466.4523010253907	235.7173767089844	-202.2960815429688	-400.9901428222657	76.03763580322267	-234.677474975586	-378.5914611816407	79.25576782226564	-179.5788269042969	-408.103240966797	105.167465209961	-131.5918731689453	-143.5882568359375	1417.631713867188	-291.1180419921876	-220.9220428466797	1203.95556640625	-264.3461914062501	17.26889801025391	1128.718872070313	-277.5480041503907	-24.92470932006837	1348.4873046875	-291.2976074218751	-233.9524078369141	1229.106323242188	-348.9481811523438	-187.9625396728516	1367.103881835938	-347.0254821777344	-159.392562866211	1367.915771484375	-417.7906799316407	-111.6633911132813	1347.279418945313	-469.4317016601564	-215.2614288330079	1050.124145507813	-507.3153686523439	-197.715805053711	1036.181884765625	-419.8797302246095	-230.4107666015626	1032.348022460938	-468.2019958496095	-193.4303283691407	796.1098632812502	-508.6363220214845	-253.9199829101563	829.4884033203127	-539.0539550781251	-211.3957672119141	710.7211303710939	-527.9800415039064	-299.5834045410157	763.7457275390626	-534.4362792968751	-222.7856445312501	1240.661987304688	-176.9829254150391	-174.5646209716797	1376.368774414063	-207.3955841064454	-133.4749450683594	1383.594116210938	-130.9893341064453	-82.64270782470705	1385.539794921875	-103.8809127807617	-101.4466018676758	1065.7509765625	-40.50901794433594	-102.4726257324219	1052.351196289063	-123.9804382324219	-112.6541290283203	1036.180786132813	-73.57278442382814	71.11629486083986	880.547302246094	-43.8795394897461	7.425074577331545	856.8528442382815	-14.40431118011475	124.3204650878907	812.812927246094	-23.48851203918457	28.4250888824463	776.557800292969	-18.10645484924317	
20	0.19	9.939288139343263	943.3023071289065	-385.5078430175782	-188.5726165771485	951.2952270507815	-317.8554077148438	-186.0134429931641	942.7522583007815	-205.7439880371094	-1.3168203830719	916.5367431640627	-142.1107940673828	-60.4008026123047	889.9539794921877	-458.9240112304689	60.87787246704103	467.0916748046876	-400.8745727539064	34.92360305786134	458.993621826172	-269.0175170898438	39.72459793090821	412.844207763672	-405.377166748047	102.4993438720703	407.9088745117189	-343.5263977050782	40.22348403930665	67.17044067382814	-347.1932678222657	57.25402832031251	80.9819793701172	-262.8874206542969	3.944887638092042	18.80345344543457	-300.3507690429688	187.5721740722657	15.38838481903077	-259.6095581054688	195.3786773681641	35.03071975708009	-320.2563781738282	150.9762878417969	20.36190223693848	-371.5914611816407	-78.25892639160158	839.4973144531252	-84.93211364746095	-47.79701232910157	429.7363891601564	-122.4080200195313	-19.50647354125977	419.5170288085939	-258.8025207519532	-89.09048461914064	405.2087707519532	-118.6535263061524	-45.86761474609376	349.6771850585938	-166.9631500244141	-375.8561706542969	230.3871002197266	-154.1158447265625	-360.5470275878907	213.4412078857422	-237.5820312500001	-432.9392089843751	233.3225708007813	-202.0388488769532	-358.4755859375001	77.00377655029298	-230.6903076171876	-336.5202941894532	82.89146423339845	-175.7826690673828	-367.1639099121094	108.8509521484375	-128.4827117919922	-126.970573425293	1420.991577148438	-291.5321960449219	-205.2320861816407	1207.58349609375	-265.3596801757813	32.53459548950196	1131.184204101563	-277.3627624511719	-8.638642311096193	1351.337890625	-291.3263549804688	-218.0695190429688	1232.742919921875	-350.1159667968751	-171.3614501953125	1370.581909179688	-347.7592163085938	-142.5040130615235	1371.177124023438	-418.4308471679689	-94.16580963134767	1350.26708984375	-469.7612304687501	-191.58984375	1050.459838867188	-508.1734313964845	-175.8139190673828	1037.342041015625	-420.3257446289064	-207.2481689453126	1032.169555664063	-469.1772766113282	-161.1828002929688	797.1306762695315	-507.3743896484376	-222.2138824462891	828.1157836914065	-539.3386840820314	-175.1020050048828	711.6414794921876	-527.3657836914064	-265.2202148437501	760.6773681640626	-535.7072143554689	-207.4558715820313	1244.438232421875	-177.8157653808594	-158.3133087158203	1379.886474609375	-207.9065551757813	-117.4667663574219	1386.8603515625	-131.3552398681641	-66.65959930419923	1388.490356445313	-104.1083755493164	-86.87803649902345	1069.118286132813	-41.40334701538087	-88.54503631591798	1055.886108398438	-124.7531280517578	-99.04810333251956	1040.541870117188	-74.66452026367189	75.90257263183595	875.5317382812502	-43.28786849975587	10.83845233917237	855.4939575195315	-14.32528495788575	125.2013931274414	804.8604125976565	-22.82072257995606	27.40656852722169	773.9888305664065	-18.59151268005371	
21	0.2	24.94738578796387	946.5760498046877	-385.6589965820314	-172.8457183837891	954.323913574219	-318.9045104980469	-171.2792510986328	945.5786132812502	-207.7390136718751	12.9591646194458	920.8530273437502	-141.4882202148438	-46.45431900024415	892.5859985351565	-459.0064697265626	64.07696533203126	466.8413391113282	-401.592010498047	39.6383399963379	459.2916870117189	-269.0641174316407	41.53050231933594	412.9010314941407	-405.6617431640626	105.6638412475586	407.1076049804689	-344.7039489746094	40.12572860717774	67.27992248535158	-347.2939147949219	57.28159713745119	81.22775268554689	-263.0217590332032	3.9528386592865	18.74068260192871	-300.3692321777344	187.3553924560547	16.14891052246094	-259.7616882324219	195.1895294189454	35.55111694335938	-320.4756164550782	150.9239501953125	20.72291564941407	-371.7172851562501	-65.03820800781251	843.0683593750002	-86.64585113525392	-16.22482872009278	434.6213684082032	-123.8126525878907	11.35538673400879	425.1671447753907	-260.4996032714844	-56.92477416992189	409.6780700683595	-120.4328536987305	-12.65248489379883	354.5425720214844	-168.624984741211	-340.2913818359376	229.6819610595704	-153.9305572509766	-324.7913818359376	212.2579650878907	-237.5636901855469	-398.5050354003907	228.9082031250001	-201.783920288086	-314.1505737304688	76.83509063720705	-227.2627868652344	-292.6515808105469	85.57595825195314	-172.5587615966797	-324.5169067382813	110.9925918579102	-125.8155517578125	-110.5913925170899	1424.352172851563	-291.8622436523438	-189.643798828125	1211.138916015625	-266.3800964355469	47.72299957275391	1133.95068359375	-277.1689453125001	7.414760589599611	1354.278198242188	-291.3299560546876	-202.3545532226563	1236.358764648438	-351.2391967773438	-155.0298919677735	1374.034301757813	-348.3733215332032	-125.9326858520508	1374.481323242188	-418.9565734863282	-77.10621643066408	1353.4345703125	-470.0018005371095	-167.9136352539063	1051.00732421875	-508.8857727050782	-153.988754272461	1038.717895507813	-420.6628723144532	-184.0311279296875	1032.093994140625	-470.0329895019532	-128.3028717041016	798.7635498046877	-505.9817810058595	-189.9425506591797	827.1201782226565	-539.2885131835939	-137.8468017578125	713.3957519531251	-526.7650756835939	-229.9363250732422	757.9163208007814	-536.6586303710939	-192.213607788086	1248.117553710938	-178.692855834961	-142.3103179931641	1383.34912109375	-208.3667297363282	-101.7339324951172	1390.075317382813	-131.68310546875	-50.9599075317383	1391.4384765625	-104.2765655517578	-72.63288879394533	1072.540649414063	-42.25030517578126	-74.82456207275392	1059.49609375	-125.5050735473633	-85.69345855712892	1045.014038085938	-75.65227508544923	80.12572479248048	871.2540283203127	-42.67375564575196	13.91973018646241	854.916442871094	-14.15538215637207	125.4232635498047	797.7774047851565	-22.33192253112793	26.04602622985841	772.4020996093752	-18.99411392211914	
22	0.21	39.98180770874024	949.5859375000002	-385.6849365234376	-157.0367584228516	957.3001098632815	-320.0931701660157	-156.5423583984375	948.484313964844	-209.8671569824219	27.19942092895509	925.446716308594	-140.7848358154297	-32.44480133056641	894.8909301757815	-458.9385986328126	66.64041900634767	466.5825195312501	-402.2234497070314	43.14334869384766	459.3706054687501	-269.0645751953126	42.72237396240235	412.935028076172	-405.8731384277345	108.0978164672852	406.3139648437501	-345.6626892089844	39.96562576293946	67.35720825195314	-347.3817443847657	57.26494216918947	81.41710662841798	-263.1628417968751	3.903340339660645	18.63315582275391	-300.3535461425782	187.1720581054688	16.79337501525879	-259.9200744628907	194.9803771972657	35.91826629638673	-320.7072448730469	150.8453674316407	20.88452911376953	-371.8012390136719	-52.34399032592775	846.8480224609377	-88.3591766357422	14.96722888946534	440.1030273437501	-125.3445663452149	41.75418853759766	431.6018371582032	-262.2295532226563	-25.15291404724122	414.5184020996095	-122.3576736450196	20.43616676330567	360.0039672851563	-170.3761749267578	-303.9310913085938	227.2876281738282	-153.8237762451172	-288.1618041992188	209.6596221923829	-237.6632385253907	-363.1423339843751	222.6010742187501	-201.5396575927735	-268.4459228515626	75.62815093994142	-224.5089569091797	-247.4568481445313	87.20404052734376	-170.0195007324219	-280.5832214355469	111.5297546386719	-123.6825561523438	-94.42513275146486	1427.636474609375	-292.1293945312501	-174.1196594238282	1214.54833984375	-267.4195861816407	62.87736129760744	1136.975463867188	-276.9809875488282	23.26428604125977	1357.245239257813	-291.3305358886719	-186.7516479492188	1239.882080078125	-352.3367614746094	-138.9347686767578	1377.384765625	-348.8916931152344	-109.6402053833008	1377.760375976563	-419.3941040039064	-60.44954299926759	1356.722534179688	-470.1814270019532	-144.2601013183594	1051.756958007813	-509.4641113281251	-132.2131805419922	1040.300170898438	-420.9083251953126	-160.7679290771485	1032.114501953125	-470.7728881835939	-94.88973999023439	801.0555419921877	-504.4595031738282	-157.1794891357422	826.5550537109377	-538.8948364257814	-99.77332305908206	716.0467529296876	-526.1163940429689	-193.8179016113282	755.5586547851564	-537.2275390625001	-177.0293426513672	1251.6298828125	-179.62646484375	-126.5205688476563	1386.678955078125	-208.797592163086	-86.24000549316408	1393.169555664063	-131.9952697753907	-35.51558303833009	1394.323974609375	-104.4096603393555	-58.74034500122072	1075.95068359375	-43.08322525024415	-61.27574157714845	1063.131469726563	-126.2796020507813	-72.59228515625001	1049.51416015625	-76.5729217529297	83.90605926513673	867.7232666015627	-42.01630783081055	16.77861595153809	855.0637207031252	-13.89873695373536	125.1513366699219	791.5952758789065	-21.96645164489746	24.51466369628907	771.7554931640627	-19.27813148498536	
